<mxfile host="app.diagrams.net" modified="2024-01-19T13:37:44.546Z" agent="Mozilla/5.0 (Windows NT 10.0; Win64; x64) AppleWebKit/537.36 (KHTML, like Gecko) Chrome/120.0.0.0 Safari/537.36" etag="GxXcZ8jhJPGjKA97LGnd" version="22.1.21" type="github">
  <diagram name="第 1 页" id="hvRZ2YbWO_7Y9EEBjypZ">
    <mxGraphModel dx="1088" dy="808" grid="1" gridSize="10" guides="1" tooltips="1" connect="1" arrows="1" fold="1" page="0" pageScale="1" pageWidth="827" pageHeight="1169" math="0" shadow="0">
      <root>
        <mxCell id="0" />
        <mxCell id="1" parent="0" />
        <mxCell id="JzyRzFea4COvQ7fx1za1-3" value="" style="edgeStyle=orthogonalEdgeStyle;rounded=0;orthogonalLoop=1;jettySize=auto;html=1;" edge="1" parent="1" source="JzyRzFea4COvQ7fx1za1-1" target="JzyRzFea4COvQ7fx1za1-14">
          <mxGeometry relative="1" as="geometry">
            <mxPoint x="60" y="400" as="targetPoint" />
          </mxGeometry>
        </mxCell>
        <mxCell id="JzyRzFea4COvQ7fx1za1-1" value="&lt;font style=&quot;font-size: 14px;&quot;&gt;.java文件&lt;/font&gt;" style="rounded=1;whiteSpace=wrap;html=1;" vertex="1" parent="1">
          <mxGeometry x="40" y="230" width="120" height="60" as="geometry" />
        </mxCell>
        <mxCell id="JzyRzFea4COvQ7fx1za1-7" value="" style="edgeStyle=orthogonalEdgeStyle;rounded=0;orthogonalLoop=1;jettySize=auto;html=1;" edge="1" parent="1" source="JzyRzFea4COvQ7fx1za1-4">
          <mxGeometry relative="1" as="geometry">
            <mxPoint x="670" y="260" as="targetPoint" />
          </mxGeometry>
        </mxCell>
        <mxCell id="JzyRzFea4COvQ7fx1za1-4" value="&lt;font style=&quot;font-size: 14px;&quot;&gt;.class文件&lt;/font&gt;" style="whiteSpace=wrap;html=1;rounded=1;" vertex="1" parent="1">
          <mxGeometry x="470" y="230" width="120" height="60" as="geometry" />
        </mxCell>
        <mxCell id="JzyRzFea4COvQ7fx1za1-9" value="" style="edgeStyle=orthogonalEdgeStyle;rounded=0;orthogonalLoop=1;jettySize=auto;html=1;" edge="1" parent="1">
          <mxGeometry relative="1" as="geometry">
            <mxPoint x="790" y="260" as="sourcePoint" />
            <mxPoint x="870" y="260" as="targetPoint" />
          </mxGeometry>
        </mxCell>
        <mxCell id="JzyRzFea4COvQ7fx1za1-10" value="&lt;font style=&quot;font-size: 14px;&quot;&gt;Compiler编译器&lt;/font&gt;" style="text;html=1;strokeColor=none;fillColor=none;align=center;verticalAlign=middle;whiteSpace=wrap;rounded=0;" vertex="1" parent="1">
          <mxGeometry x="300" y="190" width="60" height="30" as="geometry" />
        </mxCell>
        <mxCell id="JzyRzFea4COvQ7fx1za1-11" value="&lt;font style=&quot;font-size: 14px;&quot;&gt;Interpreter&lt;br&gt;解释器&lt;/font&gt;" style="text;html=1;strokeColor=none;fillColor=none;align=center;verticalAlign=middle;whiteSpace=wrap;rounded=0;" vertex="1" parent="1">
          <mxGeometry x="700" y="190" width="60" height="30" as="geometry" />
        </mxCell>
        <mxCell id="JzyRzFea4COvQ7fx1za1-12" value="&lt;font style=&quot;font-size: 19px;&quot;&gt;Java编译原理&lt;/font&gt;" style="text;html=1;strokeColor=none;fillColor=none;align=center;verticalAlign=middle;whiteSpace=wrap;rounded=0;" vertex="1" parent="1">
          <mxGeometry x="470" y="100" width="120" height="40" as="geometry" />
        </mxCell>
        <mxCell id="JzyRzFea4COvQ7fx1za1-13" value="Stuff&lt;br&gt;Happen" style="ellipse;shape=cloud;whiteSpace=wrap;html=1;fillColor=#e1d5e7;strokeColor=#9673a6;" vertex="1" parent="1">
          <mxGeometry x="860" y="220" width="120" height="80" as="geometry" />
        </mxCell>
        <mxCell id="JzyRzFea4COvQ7fx1za1-15" value="" style="edgeStyle=orthogonalEdgeStyle;rounded=0;orthogonalLoop=1;jettySize=auto;html=1;fontFamily=Helvetica;fontSize=12;fontColor=default;" edge="1" parent="1" source="JzyRzFea4COvQ7fx1za1-14" target="JzyRzFea4COvQ7fx1za1-4">
          <mxGeometry relative="1" as="geometry" />
        </mxCell>
        <mxCell id="JzyRzFea4COvQ7fx1za1-14" value="&lt;font style=&quot;font-size: 14px;&quot;&gt;javac&lt;/font&gt;" style="rounded=0;whiteSpace=wrap;html=1;strokeColor=#d79b00;align=center;verticalAlign=middle;fontFamily=Helvetica;fontSize=12;fontColor=default;fillColor=#ffe6cc;" vertex="1" parent="1">
          <mxGeometry x="270" y="230" width="120" height="60" as="geometry" />
        </mxCell>
        <mxCell id="JzyRzFea4COvQ7fx1za1-16" value="&lt;font style=&quot;font-size: 14px;&quot;&gt;java&lt;/font&gt;" style="rounded=0;whiteSpace=wrap;html=1;strokeColor=#d79b00;align=center;verticalAlign=middle;fontFamily=Helvetica;fontSize=12;fontColor=default;fillColor=#ffe6cc;" vertex="1" parent="1">
          <mxGeometry x="670" y="230" width="120" height="60" as="geometry" />
        </mxCell>
      </root>
    </mxGraphModel>
  </diagram>
</mxfile>
